<?xml version="1.0" encoding="UTF-8" standalone="no"?>
<svg
   class="icon"
   height="512"
   viewBox="0 0 1024 1024"
   version="1.1"
   id="svg53"
   xmlns="http://www.w3.org/2000/svg"
   xmlns:svg="http://www.w3.org/2000/svg">
  <defs
     id="defs57" />
  <path
     d="m 1059.45,516.81186 c 0.011,-0.36719 -0.012,-0.73437 -0.018,-1.10427 -0.012,-0.30387 -0.012,-0.60775 -0.034,-0.908 -0.028,-0.32378 -0.086,-0.64755 -0.1351,-0.97132 -0.048,-0.34186 -0.09,-0.68281 -0.1622,-1.01834 -0.059,-0.27403 -0.1416,-0.54897 -0.214,-0.82119 -0.1006,-0.37804 -0.1946,-0.75969 -0.3179,-1.13049 -0.08,-0.23695 -0.1838,-0.47028 -0.2735,-0.70542 -0.1557,-0.40427 -0.3081,-0.80672 -0.4941,-1.20284 -0.1005,-0.21706 -0.2248,-0.43049 -0.3351,-0.64393 a 23.103751,19.327739 0 0 0 -0.6573,-1.19199 c -0.038,-0.0633 -0.065,-0.12933 -0.107,-0.19354 -0.1071,-0.17002 -0.2346,-0.32648 -0.3492,-0.4938 -0.2313,-0.34366 -0.4627,-0.68824 -0.7189,-1.02105 a 22.996725,19.238204 0 0 0 -0.6487,-0.79587 22.623753,18.92619 0 0 0 -0.6919,-0.78591 22.900508,19.157714 0 0 0 -0.8292,-0.82933 c -0.228,-0.21705 -0.4541,-0.43411 -0.6918,-0.64212 a 26.875638,22.483159 0 0 0 -1.7071,-1.36201 24.489695,20.487168 0 0 0 -8.2086,-3.89159 24.192398,20.238461 0 0 0 -1.0811,-0.26861 c -0.3837,-0.0895 -0.7676,-0.17907 -1.1611,-0.25413 a 27.075637,22.650472 0 0 0 -1.3037,-0.20801 c -0.2487,-0.0353 -0.4908,-0.0904 -0.7428,-0.11848 l -143.88068,-16.61366 74.8864,-62.64716 c 0.2659,-0.22338 0.4941,-0.46305 0.7459,-0.69095 0.2087,-0.18812 0.4152,-0.37081 0.613,-0.56706 a 24.418344,20.427479 0 0 0 1.8595,-2.08462 c 0.073,-0.0923 0.1308,-0.19354 0.2,-0.28669 0.5394,-0.72261 1.0097,-1.46511 1.427,-2.22842 0.048,-0.0841 0.1114,-0.15917 0.1557,-0.24599 0.038,-0.0751 0.066,-0.15013 0.1038,-0.22248 0.2042,-0.39884 0.3838,-0.80401 0.5567,-1.21189 0.1038,-0.24238 0.2109,-0.48294 0.3038,-0.72532 0.1319,-0.35 0.2379,-0.70543 0.3459,-1.06085 0.093,-0.3093 0.1935,-0.61589 0.2704,-0.92519 0.068,-0.28398 0.1167,-0.56706 0.1685,-0.85375 0.073,-0.37803 0.1481,-0.75426 0.1936,-1.1332 0.027,-0.23424 0.038,-0.46847 0.055,-0.69909 0.034,-0.41964 0.069,-0.83837 0.073,-1.25801 0,-0.23153 -0.018,-0.46215 -0.027,-0.69638 a 25.948072,21.707192 0 0 0 -0.069,-1.22997 c -0.032,-0.28579 -0.087,-0.56615 -0.132,-0.85194 -0.055,-0.34729 -0.1037,-0.69367 -0.1794,-1.03824 -0.08,-0.36447 -0.1902,-0.72351 -0.2973,-1.08437 -0.076,-0.25684 -0.1384,-0.51731 -0.2249,-0.77144 -0.1405,-0.41331 -0.3135,-0.81848 -0.4832,-1.22364 -0.086,-0.19897 -0.1589,-0.40427 -0.2529,-0.60142 -0.1904,-0.40427 -0.4109,-0.80039 -0.6325,-1.19923 -0.1102,-0.19715 -0.2108,-0.39612 -0.3275,-0.58966 -0.2152,-0.35271 -0.4562,-0.69638 -0.6985,-1.04095 -0.1621,-0.23514 -0.3221,-0.47119 -0.494,-0.70271 -0.2152,-0.28037 -0.4497,-0.54987 -0.681,-0.82119 a 23.681048,19.810684 0 0 0 -0.7439,-0.8447 c -0.2031,-0.21344 -0.4216,-0.41873 -0.6356,-0.62674 a 22.841049,19.107972 0 0 0 -0.9946,-0.91977 l -0.2076,-0.19354 c -0.1459,-0.12119 -0.3081,-0.2261 -0.4562,-0.34367 a 23.429157,19.599961 0 0 0 -1.106,-0.83566 c -0.2701,-0.19082 -0.5459,-0.36718 -0.8259,-0.54715 a 25.112397,21.008098 0 0 0 -1.0411,-0.6385 23.830236,19.93549 0 0 0 -1.081,-0.57881 c -0.3005,-0.15284 -0.6011,-0.3093 -0.9157,-0.45039 a 22.634563,18.935233 0 0 0 -1.3243,-0.56072 c -0.186,-0.076 -0.359,-0.16279 -0.5493,-0.23153 L 628.52841,260.25333 c -0.0929,-0.0344 -0.19026,-0.057 -0.28323,-0.0923 a 23.238887,19.440788 0 0 0 -1.40973,-0.45401 c -0.29731,-0.0895 -0.59461,-0.18178 -0.89514,-0.26227 a 22.785915,19.061848 0 0 0 -1.26487,-0.28941 c -0.36756,-0.0787 -0.72973,-0.16279 -1.09946,-0.22609 -0.34919,-0.0606 -0.69838,-0.10129 -1.05081,-0.14742 -0.43891,-0.0579 -0.87784,-0.12119 -1.31999,-0.15917 -0.29406,-0.0253 -0.58812,-0.0317 -0.88108,-0.0488 -0.48757,-0.0262 -0.97514,-0.0543 -1.45947,-0.0579 -0.29296,-0.003 -0.58378,0.0145 -0.87675,0.0235 -0.47783,0.0118 -0.95459,0.0199 -1.42485,0.0579 -0.35244,0.0253 -0.70164,0.0751 -1.05406,0.11214 -0.40432,0.0461 -0.80865,0.0841 -1.20973,0.1447 -0.4346,0.0669 -0.86378,0.15918 -1.29189,0.246 -0.31136,0.0633 -0.62595,0.11576 -0.93297,0.18992 -0.48109,0.11395 -0.95135,0.25504 -1.42378,0.39431 -0.25622,0.0751 -0.51568,0.14109 -0.76433,0.22248 -0.4627,0.15013 -0.91567,0.3292 -1.36865,0.50646 -0.25946,0.10039 -0.52215,0.19354 -0.77405,0.30026 -0.39459,0.16731 -0.77404,0.35543 -1.16106,0.54263 -0.31136,0.15104 -0.62595,0.29845 -0.92973,0.46124 -0.30054,0.16099 -0.5946,0.34006 -0.88865,0.51641 a 22.675644,18.9696 0 0 0 -1.10596,0.6801 c -0.22486,0.15013 -0.44215,0.31202 -0.66377,0.47029 -0.40432,0.2894 -0.80432,0.58514 -1.18919,0.89987 -0.0649,0.0524 -0.13406,0.0986 -0.19999,0.15374 l -92.16744,77.14093 -92.20203,-77.13279 -0.24217,-0.18178 a 25.156722,21.045178 0 0 0 -1.05729,-0.80129 c -0.26271,-0.18992 -0.52216,-0.38437 -0.79135,-0.56344 -0.31136,-0.20529 -0.63244,-0.39341 -0.95352,-0.58423 -0.34594,-0.20801 -0.68756,-0.41602 -1.04431,-0.60685 -0.24866,-0.13385 -0.50379,-0.24871 -0.75676,-0.37351 a 22.758887,19.039238 0 0 0 -1.32648,-0.62132 c -0.19785,-0.0841 -0.40109,-0.15375 -0.60216,-0.23514 a 23.459426,19.625284 0 0 0 -1.54054,-0.56886 c -0.19028,-0.0633 -0.38812,-0.11305 -0.58163,-0.17093 a 24.879966,20.813653 0 0 0 -1.60324,-0.44496 c -0.24865,-0.0579 -0.50055,-0.1013 -0.75351,-0.15375 -0.48649,-0.10039 -0.97405,-0.20439 -1.46919,-0.28036 -0.34811,-0.0543 -0.70487,-0.0859 -1.05729,-0.12662 -0.40001,-0.0461 -0.79784,-0.10129 -1.20001,-0.13023 -0.43134,-0.0317 -0.87027,-0.0407 -1.30594,-0.0515 -0.33081,-0.009 -0.66271,-0.0289 -0.99459,-0.0271 -0.45622,0.004 -0.91567,0.0326 -1.37297,0.0552 -0.32108,0.0181 -0.64216,0.0271 -0.96325,0.0552 -0.42162,0.038 -0.84,0.0959 -1.26162,0.15374 -0.36972,0.0488 -0.73946,0.0923 -1.10595,0.15375 -0.35675,0.0597 -0.70918,0.14108 -1.06161,0.21615 -0.43243,0.0923 -0.86703,0.18178 -1.29621,0.29483 -0.29622,0.0778 -0.59027,0.17093 -0.88433,0.26046 a 23.238887,19.440788 0 0 0 -1.40973,0.45401 c -0.0941,0.0344 -0.19459,0.0579 -0.28756,0.0923 L 56.58112,384.17946 c -0.19028,0.0687 -0.36324,0.15827 -0.54919,0.23062 a 22.634563,18.935233 0 0 0 -1.32433,0.56073 c -0.31134,0.1447 -0.61189,0.29845 -0.91567,0.45129 a 22.789157,19.064561 0 0 0 -1.08108,0.57881 28.735094,24.038712 0 0 0 -1.04107,0.6385 c -0.27676,0.17907 -0.55243,0.35542 -0.82596,0.54625 -0.38377,0.2686 -0.74595,0.54897 -1.10594,0.83566 -0.14811,0.11757 -0.30811,0.22248 -0.45622,0.34367 -0.0724,0.0606 -0.13513,0.13023 -0.20756,0.19354 -0.34594,0.29844 -0.67027,0.60775 -0.99459,0.91976 -0.21514,0.20801 -0.43244,0.41331 -0.63676,0.62765 -0.25946,0.27493 -0.50054,0.56072 -0.7427,0.8438 -0.23135,0.27131 -0.46703,0.54082 -0.68109,0.82118 -0.17621,0.22881 -0.33188,0.46576 -0.49405,0.70271 -0.24216,0.34367 -0.48432,0.68734 -0.69838,1.04005 -0.11783,0.19445 -0.21729,0.39432 -0.32864,0.59057 -0.22054,0.39612 -0.44216,0.79225 -0.63243,1.20013 -0.093,0.19896 -0.1654,0.40155 -0.25189,0.60142 -0.17298,0.40426 -0.34595,0.81214 -0.48433,1.22273 -0.0864,0.25414 -0.14811,0.51551 -0.22378,0.77235 -0.10383,0.36176 -0.21513,0.7199 -0.2973,1.08346 -0.0757,0.34367 -0.12432,0.69186 -0.17946,1.03825 -0.0455,0.28307 -0.10051,0.56705 -0.13189,0.85284 -0.0453,0.40788 -0.0552,0.81847 -0.0691,1.22906 -0.007,0.23153 -0.027,0.46215 -0.027,0.69638 0.004,0.41964 0.0379,0.83928 0.0724,1.25801 0.0173,0.23424 0.027,0.46848 0.0541,0.7 0.0455,0.37804 0.12217,0.75426 0.1946,1.1332 0.0552,0.28579 0.1005,0.56977 0.16864,0.85284 0.0757,0.30931 0.1773,0.61499 0.27027,0.9252 0.10703,0.35542 0.21406,0.70813 0.34595,1.06085 0.0897,0.24328 0.19999,0.48565 0.30271,0.72622 0.17296,0.40698 0.3535,0.81215 0.55783,1.21189 0.0378,0.0742 0.0616,0.14922 0.10268,0.22157 0.0453,0.0868 0.11138,0.15917 0.15568,0.246 0.41838,0.75968 0.89188,1.50671 1.42702,2.22932 0.0703,0.0923 0.13189,0.19354 0.20108,0.28579 a 24.418344,20.427479 0 0 0 1.85945,2.08462 c 0.19676,0.19716 0.40758,0.37984 0.6119,0.56705 0.24864,0.22791 0.48,0.46848 0.74594,0.69096 l 75.79989,63.41046 -118.79334,15.91367 c -0.17946,0.0235 -0.34919,0.0669 -0.5254,0.0931 a 27.703745,23.175923 0 0 0 -2.39891,0.47028 20.591322,17.225935 0 0 0 -1.10596,0.29845 c -0.39676,0.11305 -0.78809,0.23153 -1.17512,0.35814 -0.3319,0.11034 -0.65623,0.23514 -0.98163,0.35633 a 22.29186,18.648542 0 0 0 -1.15676,0.46486 c -0.32216,0.13927 -0.6335,0.29212 -0.94702,0.44315 -0.35675,0.17274 -0.70918,0.34367 -1.0508,0.52816 -0.3319,0.17998 -0.65731,0.37623 -0.9784,0.56977 -0.30053,0.18269 -0.59783,0.36176 -0.88864,0.55168 a 22.999968,19.240918 0 0 0 -0.99459,0.70904 c -0.25297,0.18811 -0.50486,0.37261 -0.74594,0.56977 a 27.437799,22.953442 0 0 0 -1.61838,1.43979 30.393471,25.426047 0 0 0 -1.4789,1.60981 24.341587,20.363267 0 0 0 -1.30704,1.7699 c -0.0822,0.12661 -0.18378,0.24328 -0.2627,0.37261 -0.0757,0.12209 -0.13081,0.2487 -0.20325,0.37351 a 22.084294,18.474898 0 0 0 -0.59784,1.08708 21.30051,17.819215 0 0 0 -0.81945,1.854 c -0.10382,0.27674 -0.20757,0.55439 -0.2973,0.83475 -0.11024,0.34729 -0.20432,0.69638 -0.29405,1.05271 -0.0757,0.30297 -0.15135,0.60414 -0.21082,0.90801 a 23.619427,19.759134 0 0 0 -0.15891,1.01111 26.836719,22.450601 0 0 0 -0.11023,0.98036 25.274559,21.143756 0 0 0 0.18702,4.0363 c 0.0238,0.14741 0.027,0.29483 0.0584,0.44496 0.0346,0.17364 0.0865,0.33824 0.12433,0.50917 a 24.988074,20.904093 0 0 0 0.54594,1.92002 c 0.0832,0.23424 0.16217,0.46848 0.25622,0.70271 0.15567,0.39251 0.32432,0.77778 0.5081,1.15943 0.093,0.19625 0.1827,0.38979 0.28324,0.58333 0.20758,0.39974 0.43567,0.78954 0.67352,1.1739 0.10805,0.17636 0.21082,0.35272 0.32108,0.52365 0.25621,0.38436 0.52974,0.75788 0.81297,1.12777 0.12758,0.1646 0.24541,0.33463 0.37621,0.49742 0.30055,0.36718 0.62271,0.71627 0.94703,1.06356 0.14162,0.15375 0.27352,0.31202 0.42163,0.46305 0.46702,0.46757 0.95459,0.91886 1.46918,1.35025 0.2,0.17003 0.42486,0.32378 0.63244,0.48838 0.33837,0.26589 0.67675,0.53178 1.0335,0.77777 0.24217,0.16731 0.4973,0.32377 0.74919,0.48566 0.36,0.23152 0.72325,0.46214 1.09946,0.67648 a 27.786989,23.245561 0 0 0 2.03892,1.04005 c 0.1319,0.0615 0.24864,0.13114 0.38054,0.18902 l 180.9273,79.20555 2.5881,232.42485 c 0.003,0.21073 0.0346,0.41331 0.0454,0.62403 0.0173,0.37894 0.0378,0.75788 0.0789,1.13682 0.0389,0.34096 0.10053,0.67649 0.15892,1.01111 0.0519,0.29845 0.10378,0.596 0.17297,0.89354 0.0897,0.38437 0.20108,0.76331 0.31459,1.13953 0.0757,0.246 0.14919,0.49109 0.23568,0.73708 0.1373,0.3907 0.29297,0.77507 0.45946,1.15672 0.0995,0.23152 0.2,0.46214 0.31027,0.69367 0.17729,0.36175 0.36756,0.71718 0.56756,1.06989 0.14054,0.24871 0.28,0.4947 0.43244,0.73979 a 25.80645,21.588717 0 0 0 2.61945,3.33721 c 0.20324,0.21072 0.4173,0.41602 0.63568,0.6186 0.30054,0.28579 0.6054,0.56977 0.92648,0.8438 0.2346,0.19896 0.47568,0.38798 0.71892,0.57519 0.32108,0.25232 0.63892,0.50013 0.97729,0.73798 0.30487,0.21344 0.62271,0.41059 0.9373,0.61227 0.2973,0.18812 0.58703,0.37985 0.8973,0.55801 0.42162,0.24328 0.86162,0.46576 1.30378,0.68553 0.19027,0.0959 0.36648,0.20259 0.56,0.29483 l 0.36324,0.17093 0.0206,0.009 302.44282,141.9831 a 24.165371,20.215851 0 0 0 23.22916,0.208 L 823.61132,870.55624 a 24.315641,20.341561 0 0 0 2.1265,-1.06447 c 0.2411,-0.13566 0.4595,-0.2894 0.6941,-0.43049 0.3946,-0.23966 0.7914,-0.47028 1.1676,-0.72803 0.4151,-0.28398 0.8,-0.59057 1.1891,-0.89354 0.1774,-0.13928 0.36,-0.26589 0.5331,-0.40788 0.3837,-0.32106 0.7394,-0.65659 1.0918,-0.99483 0.1589,-0.15375 0.3286,-0.29483 0.4844,-0.45129 0.307,-0.31202 0.587,-0.6385 0.8702,-0.96228 0.1838,-0.20801 0.373,-0.40697 0.546,-0.62131 0.2248,-0.27765 0.4215,-0.56977 0.6291,-0.85646 0.2044,-0.28036 0.4152,-0.55801 0.6011,-0.84651 0.1524,-0.23514 0.2811,-0.47752 0.4216,-0.71718 0.2076,-0.35543 0.4184,-0.70543 0.6022,-1.07261 0.1,-0.20258 0.1838,-0.41331 0.2757,-0.6186 0.1837,-0.40517 0.3708,-0.80672 0.5221,-1.22364 0.08,-0.21977 0.1384,-0.44225 0.2109,-0.66202 0.1318,-0.40426 0.2659,-0.804 0.3697,-1.21731 0.083,-0.3292 0.1319,-0.66473 0.1946,-0.99754 0.054,-0.30569 0.1276,-0.60956 0.1686,-0.92248 0.09,-0.69638 0.1384,-1.39638 0.1417,-2.09819 l 2.5988,-227.70936 207.43218,-90.80538 c 0.1481,-0.0669 0.2833,-0.1447 0.4324,-0.21162 a 25.216181,21.094919 0 0 0 2.0736,-1.06899 c 0.3556,-0.2053 0.7048,-0.42235 1.0464,-0.64212 0.2768,-0.17907 0.5535,-0.35543 0.8162,-0.54083 0.307,-0.21705 0.5978,-0.44315 0.8919,-0.67105 0.2628,-0.20168 0.5287,-0.40155 0.7774,-0.61499 0.3037,-0.25775 0.587,-0.5354 0.8745,-0.80762 0.2033,-0.19354 0.4217,-0.37804 0.6151,-0.57791 a 24.088615,20.151639 0 0 0 2.5233,-3.14818 c 0.048,-0.0723 0.086,-0.15104 0.1308,-0.22248 0.3038,-0.48656 0.5946,-0.98036 0.854,-1.48953 0.069,-0.13295 0.1244,-0.27132 0.1861,-0.40698 0.215,-0.44586 0.4183,-0.89444 0.5945,-1.35659 0.08,-0.20529 0.1384,-0.4133 0.2108,-0.62131 a 23.639967,19.776317 0 0 0 0.3698,-1.18566 c 0.073,-0.27493 0.1242,-0.5553 0.1837,-0.83204 0.054,-0.25775 0.1276,-0.50646 0.1687,-0.76964 0.014,-0.0841 0.014,-0.1646 0.028,-0.2487 0.059,-0.38437 0.09,-0.76874 0.1211,-1.15672 0.027,-0.30388 0.059,-0.58695 0.069,-0.87002 z M 697.17371,641.46768 587.6528,628.82158 847.52812,515.05372 l 109.5241,12.6461 z M 347.95476,641.35825 85.92054,526.6453 171.60149,515.16677 433.6368,629.87972 347.95584,641.35825 Z M 394.76118,302.89717 467.4054,363.665 181.06635,469.98521 108.42644,409.21646 394.76118,302.89626 Z m 229.3402,-0.004 286.34124,106.32291 -72.6399,60.76875 L 551.46474,363.665 Z M 509.43778,617.38103 231.30087,495.62198 509.43778,392.34596 787.57143,495.62198 509.43778,617.38013 Z m -176.79975,62.95466 c 0.093,0.0398 0.18919,0.066 0.28324,0.10672 0.78378,0.33191 1.5827,0.64212 2.41189,0.90168 l 0.0411,0.0145 a 23.657264,19.790787 0 0 0 3.20756,0.78048 c 0.64648,0.12119 1.3027,0.21977 1.96324,0.29484 0.2346,0.0262 0.47027,0.0579 0.70487,0.0814 0.8508,0.0751 1.70378,0.12662 2.57188,0.12662 h 0.0109 a 24.192398,20.238461 0 0 0 3.57297,-0.23967 c 0.0897,-0.0118 0.17946,-0.005 0.27027,-0.0181 l 137.56628,-18.42787 v 67.20711 c 0,1.72015 0.28325,3.38242 0.76756,4.97867 a 24.151318,20.204094 0 0 0 -0.76756,4.97867 V 953.26912 L 230.66844,833.75928 228.45223,634.72273 332.63694,680.33478 Z M 788.20712,840.4762 533.62801,954.09755 V 741.12252 c 0,-1.72015 -0.28324,-3.38242 -0.76757,-4.97867 0.48433,-1.59625 0.76757,-3.25852 0.76757,-4.97868 v -67.71898 l 164.59436,19.00758 0.0443,0.003 c 1.0854,0.1239 2.18054,0.18811 3.28322,0.18811 h 0.0103 c 0.8746,0 1.73513,-0.0525 2.5881,-0.12752 0.23568,-0.0199 0.47027,-0.0543 0.70594,-0.0814 a 22.918887,19.173088 0 0 0 1.95569,-0.29484 c 0.23135,-0.0434 0.46702,-0.0868 0.69837,-0.13565 1.74486,-0.37261 3.42161,-0.9044 5.00432,-1.58178 0.0789,-0.0344 0.15892,-0.0543 0.23784,-0.0895 l 77.67557,-34.00329 -2.2184,194.1438 z"
     id="path51"
     style="stroke-width:0.988796" />
  <circle
     cx="510.81699"
     cy="421.49805"
     style="fill:#3776ab;stroke-width:0.316779"
     id="circle157"
     rx="166.20114"
     ry="158.27689" />
  <path
     d="m 515.59146,316.80997 c -51.43278,0 -48.22566,22.99859 -48.22566,22.99859 l 0.0396,23.85644 h 49.09672 v 7.14875 h -68.577 c 0,0 -32.90274,-3.8399 -32.90274,49.71453 0,53.55445 28.74535,51.6345 28.74535,51.6345 h 17.14426 v -24.83686 c 0,0 -0.91068,-29.65714 28.27021,-29.65714 h 48.70075 c 0,0 27.35956,0.44936 27.35956,-27.28784 v -45.83378 c 0,0 4.11779,-27.73719 -49.65103,-27.73719 z m -27.0428,16.05407 c 4.87009,0 8.82949,4.08501 8.82949,9.10957 0,5.02456 -3.9594,9.10956 -8.82949,9.10956 -4.87009,0 -8.8295,-4.085 -8.8295,-9.10956 0,-5.02456 3.91982,-9.10957 8.8295,-9.10957 z m 28.50777,191.91363 c 51.43277,0 48.22565,-22.99859 48.22565,-22.99859 l -0.0396,-23.85644 h -49.09674 v -7.14876 h 68.57705 c 0,0 32.90274,3.83991 32.90274,-49.71455 0,-53.55443 -28.7454,-51.63448 -28.7454,-51.63448 h -17.14427 v 24.83685 c 0,0 0.91066,29.65713 -28.2702,29.65713 h -48.70075 c 0,0 -27.35953,-0.44934 -27.35953,27.28786 v 45.83378 c 0,0 -4.07821,27.7372 49.65103,27.7372 z m 27.08239,-16.0541 c -4.87009,0 -8.8295,-4.08499 -8.8295,-9.10957 0,-5.02454 3.95941,-9.10957 8.8295,-9.10957 4.87007,0 8.82949,4.08503 8.82949,9.10957 0,5.06543 -3.95942,9.10957 -8.82949,9.10957 z"
     style="fill:#ffffff;stroke-width:0.402171"
     id="path159" />
  <g
     id="g1046"
     transform="matrix(0.89435008,0,0,0.80657448,836.83761,184.26246)" />
  <path
     style="fill:#ffff00;stroke-width:0.70041"
     d="m 434.75462,446.28172 -62.6042,-29.49419 -0.40448,-10.35613 c -0.22247,-5.69588 -0.57557,-27.92626 -0.78466,-49.40084 l -0.38016,-39.04469 3.02086,1.3116 c 1.66148,0.72138 13.72402,6.00172 26.80566,11.73408 22.4332,9.8302 24.02362,10.41768 27.98751,10.33814 2.31149,-0.0464 18.86443,-2.0682 36.7843,-4.49292 17.91987,-2.42473 32.63571,-4.35624 32.70186,-4.29224 0.48911,0.47318 0.58438,143.32874 0.0956,143.26808 -0.33992,-0.0422 -28.78993,-13.34909 -63.22224,-29.57089 z"
     id="path1834"
     transform="matrix(2,0,0,2,-512,0)" />
  <path
     style="fill:#ffff00;stroke-width:0.70041"
     d="m 523.12393,404.5042 c 0.19901,-70.9035 0.22473,-72.09011 1.56242,-72.08636 0.74804,0.002 19.57445,2.12058 41.83647,4.70774 22.26202,2.58715 41.48757,4.52052 42.72345,4.29636 1.23588,-0.22416 11.01798,-4.26449 21.73801,-8.97852 10.72002,-4.71402 19.60121,-8.48043 19.73597,-8.36978 0.13476,0.11064 -0.0481,21.73905 -0.40626,48.06313 l -0.65129,47.86197 -52.67576,23.49384 c -28.97168,12.92162 -57.48843,25.65564 -63.37056,28.29783 l -10.69478,4.80397 z"
     id="path1873"
     transform="matrix(2,0,0,2,-512,0)" />
  <path
     style="fill:#ffff00;stroke-width:0.70041"
     d=""
     id="path1951"
     transform="matrix(2,0,0,2,-512,0)" />
  <path
     style="fill:#ffff00;stroke-width:0.70041"
     d="m 365.08323,291.83522 -64.77214,-28.37544 19.68235,-2.57389 c 10.8253,-1.41564 20.33113,-2.56235 21.12408,-2.54825 0.79295,0.0141 30.34455,12.68072 65.67021,28.14802 52.64731,23.05157 63.86555,28.1948 62.21573,28.52406 -2.14554,0.42819 -37.87646,5.25018 -38.67478,5.21927 -0.26032,-0.0101 -29.62078,-12.78728 -65.24545,-28.39377 z"
     id="path1990"
     transform="matrix(2,0,0,2,-512,0)" />
  <path
     style="fill:#ffff00;stroke-width:0.70041"
     d="m 328.96611,219.7101 c -12.19667,-10.2313 -17.40009,-15.00455 -16.72831,-15.34537 3.58863,-1.82062 140.92888,-52.31134 141.29395,-51.94423 0.25176,0.25318 -1.67777,2.71139 -4.28784,5.46269 -7.766,8.18621 -14.54753,19.51425 -17.64652,29.4772 -0.6261,2.01285 -1.69158,6.64853 -2.36774,10.30151 l -1.22937,6.64177 -40.62682,15.11973 c -22.34475,8.31585 -40.64418,15.1237 -40.66539,15.12856 -0.0212,0.005 -8.0051,-6.67399 -17.74196,-14.84186 z"
     id="path2029"
     transform="matrix(2,0,0,2,-512,0)" />
  <path
     style="fill:#ffff00;stroke-width:0.70041"
     d="m 633.85957,219.40395 -39.28108,-14.61534 -0.45456,-4.0716 c -1.67625,-15.01442 -9.64384,-31.52534 -20.79412,-43.09083 -2.69994,-2.80047 -4.59406,-5.09089 -4.20917,-5.0898 0.99391,0.003 139.71749,51.52903 140.3336,52.12425 0.67275,0.64994 -33.34492,29.03102 -35.01801,29.21568 -0.71258,0.0786 -18.97208,-6.43392 -40.57666,-14.47236 z"
     id="path2068"
     transform="matrix(2,0,0,2,-512,0)" />
  <path
     style="fill:#ffff00;stroke-width:0.70041"
     d="m 576.2261,317.17323 c -12.33643,-1.46687 -22.83278,-2.80261 -23.32522,-2.96829 -0.49244,-0.16569 27.89572,-12.90388 63.08479,-28.30709 l 63.98015,-28.00585 26.55063,3.07402 26.55064,3.07402 -63.95052,27.99813 c -56.0767,24.55089 -64.35129,27.98605 -67.20556,27.90011 -1.79027,-0.0539 -13.34848,-1.29817 -25.68491,-2.76505 z"
     id="path2107"
     transform="matrix(2,0,0,2,-512,0)" />
  <path
     style="fill:#333333;stroke-width:1.40082"
     d="m 441.41827,277.56964 -67.62002,-29.72341 25.07319,-9.32732 c 33.106,-12.31554 31.24632,-11.80074 31.23747,-8.64713 -0.0145,5.1844 10.82829,25.05668 17.94072,32.88097 9.5681,10.52574 20.47263,17.62442 35.07244,22.83162 10.64942,3.79824 13.71852,4.26952 28.06631,4.30979 14.34778,0.0403 17.41948,-0.41378 28.09005,-4.15218 14.62881,-5.12516 25.57302,-12.16252 35.20006,-22.63438 7.19139,-7.82249 18.11047,-27.6033 18.12515,-32.83523 0.004,-1.54079 0.74935,-2.40745 1.75677,-2.04357 34.13618,12.32976 51.39177,18.89998 51.40564,19.57317 0.0196,0.95323 -133.77905,59.77548 -135.57332,59.60243 -0.63493,-0.0612 -31.58344,-13.48688 -68.77446,-29.83476 z"
     id="path2355"
     transform="matrix(2,0,0,2,-512,0)" />
  <path
     style="fill:#ffffff;stroke-width:1.40082"
     d="m 433.97103,445.17841 -60.83845,-28.71034 -0.62413,-15.62496 c -0.34328,-8.59372 -0.8389,-30.54945 -1.10137,-48.7905 l -0.47724,-33.16556 24.64513,10.78131 c 13.55481,5.92971 26.77499,11.15149 29.37816,11.60395 2.60317,0.45246 19.59368,-1.07571 37.75669,-3.39592 18.16301,-2.32022 33.45619,-3.77622 33.98485,-3.23557 1.42836,1.46077 0.76981,139.56585 -0.6647,139.39407 -0.67127,-0.0804 -28.59779,-13.0658 -62.05894,-28.85648 z"
     id="path2617"
     transform="matrix(2,0,0,2,-512,0)" />
  <path
     style="fill:#ffffff;stroke-width:1.40082"
     d="m 523.90039,440.42562 c 0.216,-19.40745 0.20567,-50.73339 -0.023,-69.6132 -0.22862,-18.87981 0.12023,-35.0623 0.77523,-35.96109 0.90185,-1.23751 11.31267,-0.51125 42.89189,2.99213 l 41.70097,4.62629 19.27,-8.2488 c 10.59849,-4.53684 19.73849,-8.24355 20.3111,-8.23713 0.57261,0.006 0.80512,21.05283 0.51669,46.76979 l -0.52443,46.75812 -46.81458,20.89603 c -25.74802,11.49281 -53.94305,24.13784 -62.65561,28.10007 l -15.84102,7.20406 z"
     id="path2656"
     transform="matrix(2,0,0,2,-512,0)" />
  <path
     style="fill:#ffffff;stroke-width:1.40082"
     d="m 366.29944,291.60393 c -34.65096,-15.15812 -62.87896,-27.67734 -62.72887,-27.8205 0.15008,-0.14315 8.79451,-1.25019 19.20982,-2.4601 l 18.93695,-2.19984 17.42711,7.51147 c 55.23866,23.80907 105.94804,46.45587 105.93844,47.3121 -0.01,0.856 -30.58692,5.58362 -34.38189,5.31586 -0.76989,-0.0543 -29.75059,-12.50087 -64.40156,-27.65899 z"
     id="path2695"
     transform="matrix(2,0,0,2,-512,0)" />
  <path
     style="fill:#ffffff;stroke-width:1.40082"
     d="m 582.02192,317.2337 c -10.77385,-1.17228 -20.78089,-2.62929 -22.23787,-3.23779 -2.82942,-1.18172 3.56346,-4.18732 81.92191,-38.51539 l 38.39075,-16.81861 25.10626,2.94768 25.10628,2.94767 -56.3756,24.58407 c -75.90271,33.09938 -68.02459,30.69147 -91.91173,28.09237 z"
     id="path2734"
     transform="matrix(2,0,0,2,-512,0)" />
  <path
     style="fill:#ffffff;stroke-width:1.40082"
     d="M 650.30426,224.62094 C 638.7937,220.43635 621.78753,214.1642 612.51278,210.68283 l -16.86319,-6.32976 -2.19243,-9.83664 c -2.63171,-11.80752 -7.10488,-21.47899 -14.5562,-31.47208 -3.04167,-4.07924 -4.94681,-7.41025 -4.23364,-7.40226 1.09702,0.0123 117.12425,42.82192 128.9137,47.56423 3.49644,1.40645 3.74952,1.88519 2.05771,3.8925 -4.2066,4.99105 -30.16864,25.31848 -32.22032,25.22745 -1.20222,-0.0533 -11.60358,-3.52074 -23.11415,-7.70533 z"
     id="path2773"
     transform="matrix(2,0,0,2,-512,0)" />
  <path
     style="fill:#ffffff;stroke-width:1.40082"
     d="m 329.76601,219.22479 c -8.96444,-7.53785 -15.79151,-14.13038 -15.17127,-14.65006 1.57438,-1.31913 134.36163,-50.34257 136.30137,-50.32082 0.33001,0.004 -2.19565,3.36151 -5.61258,7.46179 -8.06364,9.67629 -13.26421,20.1629 -15.88791,32.03691 -1.16033,5.25127 -2.31152,9.72968 -2.5582,9.95202 -0.96855,0.87296 -77.96683,29.2568 -79.32507,29.24157 -0.79604,-0.009 -8.78189,-6.18356 -17.74634,-13.72141 z"
     id="path2812"
     transform="matrix(2,0,0,2,-512,0)" />
</svg>
