<?xml version="1.0" encoding="UTF-8" standalone="no"?>
<svg
   class="icon"
   height="512"
   viewBox="0 0 1024 1024"
   version="1.1"
   id="svg834"
   sodipodi:docname="1e2441df9c.svg.svg"
   inkscape:version="1.1.1 (3bf5ae0d25, 2021-09-20)"
   xmlns:inkscape="http://www.inkscape.org/namespaces/inkscape"
   xmlns:sodipodi="http://sodipodi.sourceforge.net/DTD/sodipodi-0.dtd"
   xmlns="http://www.w3.org/2000/svg"
   xmlns:svg="http://www.w3.org/2000/svg">
  <defs
     id="defs838" />
  <sodipodi:namedview
     id="namedview836"
     pagecolor="#ffffff"
     bordercolor="#666666"
     borderopacity="1.0"
     inkscape:pageshadow="2"
     inkscape:pageopacity="0.0"
     inkscape:pagecheckerboard="0"
     showgrid="false"
     inkscape:zoom="0.64111328"
     inkscape:cx="454.68069"
     inkscape:cy="-60.810346"
     inkscape:window-width="1920"
     inkscape:window-height="1058"
     inkscape:window-x="-8"
     inkscape:window-y="-8"
     inkscape:window-maximized="1"
     inkscape:current-layer="svg834" />
  <path
     d="M1010.196 382.89c0.01-0.406-0.007-0.812-0.016-1.221-0.01-0.336-0.01-0.672-0.032-1.004-0.026-0.358-0.08-0.716-0.125-1.074-0.045-0.378-0.083-0.755-0.15-1.126-0.054-0.303-0.131-0.607-0.198-0.908-0.093-0.418-0.18-0.84-0.294-1.25-0.074-0.262-0.17-0.52-0.253-0.78-0.144-0.447-0.285-0.892-0.457-1.33-0.093-0.24-0.208-0.476-0.31-0.712a21.371 21.371 0 0 0-0.608-1.318c-0.035-0.07-0.06-0.143-0.099-0.214-0.099-0.188-0.217-0.361-0.323-0.546-0.214-0.38-0.428-0.761-0.665-1.129a21.272 21.272 0 0 0-0.6-0.88 20.927 20.927 0 0 0-0.64-0.869 21.183 21.183 0 0 0-0.767-0.917c-0.211-0.24-0.42-0.48-0.64-0.71a24.86 24.86 0 0 0-1.579-1.506 22.653 22.653 0 0 0-7.593-4.303 22.378 22.378 0 0 0-1-0.297c-0.355-0.099-0.71-0.198-1.074-0.281a25.045 25.045 0 0 0-1.206-0.23c-0.23-0.039-0.454-0.1-0.687-0.131l-133.09-18.37 69.27-69.27c0.246-0.247 0.457-0.512 0.69-0.764 0.193-0.208 0.384-0.41 0.567-0.627a22.587 22.587 0 0 0 1.72-2.305c0.067-0.102 0.121-0.214 0.185-0.317 0.499-0.799 0.934-1.62 1.32-2.464 0.045-0.093 0.103-0.176 0.144-0.272 0.035-0.083 0.061-0.166 0.096-0.246 0.189-0.441 0.355-0.889 0.515-1.34 0.096-0.268 0.195-0.534 0.281-0.802 0.122-0.387 0.22-0.78 0.32-1.173 0.086-0.342 0.179-0.681 0.25-1.023 0.063-0.314 0.108-0.627 0.156-0.944 0.067-0.418 0.137-0.834 0.179-1.253 0.025-0.259 0.035-0.518 0.051-0.773 0.032-0.464 0.064-0.927 0.067-1.391 0-0.256-0.016-0.511-0.025-0.77a24.002 24.002 0 0 0-0.064-1.36c-0.03-0.316-0.08-0.626-0.122-0.942-0.051-0.384-0.096-0.767-0.166-1.148-0.074-0.403-0.176-0.8-0.275-1.199-0.07-0.284-0.128-0.572-0.208-0.853-0.13-0.457-0.29-0.905-0.447-1.353-0.08-0.22-0.147-0.447-0.234-0.665-0.176-0.447-0.38-0.885-0.585-1.326-0.102-0.218-0.195-0.438-0.303-0.652-0.199-0.39-0.422-0.77-0.646-1.151-0.15-0.26-0.298-0.521-0.457-0.777-0.199-0.31-0.416-0.608-0.63-0.908a21.905 21.905 0 0 0-0.688-0.934c-0.188-0.236-0.39-0.463-0.588-0.693a21.128 21.128 0 0 0-0.92-1.017l-0.192-0.214c-0.135-0.134-0.285-0.25-0.422-0.38a21.672 21.672 0 0 0-1.023-0.924c-0.25-0.211-0.505-0.406-0.764-0.605a23.229 23.229 0 0 0-0.963-0.706 22.043 22.043 0 0 0-1-0.64c-0.278-0.169-0.556-0.342-0.847-0.498a20.937 20.937 0 0 0-1.225-0.62c-0.172-0.084-0.332-0.18-0.508-0.256L611.593 99.209c-0.086-0.038-0.176-0.063-0.262-0.102a21.496 21.496 0 0 0-1.304-0.502c-0.275-0.099-0.55-0.201-0.828-0.29a21.077 21.077 0 0 0-1.17-0.32c-0.34-0.087-0.675-0.18-1.017-0.25-0.323-0.067-0.646-0.112-0.972-0.163-0.406-0.064-0.812-0.134-1.221-0.176-0.272-0.028-0.544-0.035-0.815-0.054-0.451-0.029-0.902-0.06-1.35-0.064-0.271-0.003-0.54 0.016-0.811 0.026-0.442 0.013-0.883 0.022-1.318 0.064-0.326 0.028-0.649 0.083-0.975 0.124-0.374 0.051-0.748 0.093-1.119 0.16-0.402 0.074-0.799 0.176-1.195 0.272-0.288 0.07-0.579 0.128-0.863 0.21-0.445 0.126-0.88 0.282-1.317 0.436-0.237 0.083-0.477 0.156-0.707 0.246-0.428 0.166-0.847 0.364-1.266 0.56-0.24 0.111-0.483 0.214-0.716 0.332-0.365 0.185-0.716 0.393-1.074 0.6-0.288 0.167-0.579 0.33-0.86 0.51-0.278 0.178-0.55 0.376-0.822 0.571a20.975 20.975 0 0 0-1.023 0.752c-0.208 0.166-0.409 0.345-0.614 0.52-0.374 0.32-0.744 0.647-1.1 0.995-0.06 0.058-0.124 0.109-0.185 0.17l-85.255 85.296-85.287-85.287-0.224-0.201a23.27 23.27 0 0 0-0.978-0.886c-0.243-0.21-0.483-0.425-0.732-0.623-0.288-0.227-0.585-0.435-0.882-0.646-0.32-0.23-0.636-0.46-0.966-0.671-0.23-0.148-0.466-0.275-0.7-0.413a21.052 21.052 0 0 0-1.227-0.687c-0.183-0.093-0.371-0.17-0.557-0.26a21.7 21.7 0 0 0-1.425-0.629c-0.176-0.07-0.359-0.125-0.538-0.189a23.014 23.014 0 0 0-1.483-0.492c-0.23-0.064-0.463-0.112-0.697-0.17-0.45-0.111-0.901-0.226-1.359-0.31-0.322-0.06-0.652-0.095-0.978-0.14-0.37-0.051-0.738-0.112-1.11-0.144-0.399-0.035-0.805-0.045-1.208-0.057-0.306-0.01-0.613-0.032-0.92-0.03-0.422 0.004-0.847 0.036-1.27 0.061-0.297 0.02-0.594 0.03-0.891 0.061-0.39 0.042-0.777 0.106-1.167 0.17-0.342 0.054-0.684 0.102-1.023 0.17-0.33 0.066-0.656 0.156-0.982 0.239-0.4 0.102-0.802 0.201-1.199 0.326-0.274 0.086-0.546 0.189-0.818 0.288a21.496 21.496 0 0 0-1.304 0.502c-0.087 0.038-0.18 0.064-0.266 0.102L82.541 236.236c-0.176 0.076-0.336 0.175-0.508 0.255a20.937 20.937 0 0 0-1.225 0.62c-0.288 0.16-0.566 0.33-0.847 0.499a21.08 21.08 0 0 0-1 0.64 26.58 26.58 0 0 0-0.963 0.706c-0.256 0.198-0.511 0.393-0.764 0.604-0.355 0.297-0.69 0.607-1.023 0.924-0.137 0.13-0.285 0.246-0.422 0.38-0.067 0.067-0.125 0.144-0.192 0.214-0.32 0.33-0.62 0.672-0.92 1.017-0.199 0.23-0.4 0.457-0.589 0.694-0.24 0.304-0.463 0.62-0.687 0.933-0.214 0.3-0.432 0.598-0.63 0.908-0.163 0.253-0.307 0.515-0.457 0.777-0.224 0.38-0.448 0.76-0.646 1.15-0.109 0.215-0.201 0.436-0.304 0.653-0.204 0.438-0.409 0.876-0.585 1.327-0.086 0.22-0.153 0.444-0.233 0.665-0.16 0.447-0.32 0.898-0.448 1.352-0.08 0.281-0.137 0.57-0.207 0.854-0.096 0.4-0.199 0.796-0.275 1.198-0.07 0.38-0.115 0.765-0.166 1.148-0.042 0.313-0.093 0.627-0.122 0.943-0.042 0.451-0.051 0.905-0.064 1.359-0.006 0.256-0.025 0.511-0.025 0.77 0.003 0.464 0.035 0.928 0.067 1.391 0.016 0.259 0.025 0.518 0.05 0.774 0.042 0.418 0.113 0.834 0.18 1.253 0.051 0.316 0.093 0.63 0.156 0.943 0.07 0.342 0.164 0.68 0.25 1.023 0.099 0.393 0.198 0.783 0.32 1.173 0.083 0.269 0.185 0.537 0.28 0.803 0.16 0.45 0.327 0.898 0.516 1.34 0.035 0.082 0.057 0.165 0.095 0.245 0.042 0.096 0.103 0.176 0.144 0.272 0.387 0.84 0.825 1.666 1.32 2.465 0.065 0.102 0.122 0.214 0.186 0.316a22.587 22.587 0 0 0 1.72 2.305c0.182 0.218 0.377 0.42 0.566 0.627 0.23 0.252 0.444 0.518 0.69 0.764l70.115 70.114L36.01 360.23c-0.166 0.026-0.323 0.074-0.486 0.103a25.626 25.626 0 0 0-2.219 0.52 19.047 19.047 0 0 0-1.023 0.33c-0.367 0.125-0.729 0.256-1.087 0.396-0.307 0.122-0.607 0.26-0.908 0.394a20.62 20.62 0 0 0-1.07 0.514c-0.298 0.154-0.586 0.323-0.876 0.49-0.33 0.191-0.656 0.38-0.972 0.584-0.307 0.199-0.608 0.416-0.905 0.63-0.278 0.202-0.553 0.4-0.822 0.61a21.275 21.275 0 0 0-0.92 0.784c-0.234 0.208-0.467 0.412-0.69 0.63a25.38 25.38 0 0 0-1.497 1.592 28.114 28.114 0 0 0-1.368 1.78 22.516 22.516 0 0 0-1.209 1.957c-0.076 0.14-0.17 0.269-0.243 0.412-0.07 0.135-0.121 0.275-0.188 0.413a20.428 20.428 0 0 0-0.553 1.202 19.703 19.703 0 0 0-0.758 2.05c-0.096 0.306-0.192 0.613-0.275 0.923-0.102 0.384-0.189 0.77-0.272 1.164-0.07 0.335-0.14 0.668-0.195 1.004a21.848 21.848 0 0 0-0.147 1.118 24.824 24.824 0 0 0-0.102 1.084 23.379 23.379 0 0 0 0.173 4.463c0.022 0.163 0.025 0.326 0.054 0.492 0.032 0.192 0.08 0.374 0.115 0.563a23.114 23.114 0 0 0 0.505 2.123c0.077 0.259 0.15 0.518 0.237 0.777 0.144 0.434 0.3 0.86 0.47 1.282 0.086 0.217 0.169 0.431 0.262 0.645 0.192 0.442 0.403 0.873 0.623 1.298 0.1 0.195 0.195 0.39 0.297 0.579 0.237 0.425 0.49 0.838 0.752 1.247 0.118 0.182 0.227 0.37 0.348 0.55 0.278 0.406 0.576 0.792 0.876 1.176 0.131 0.17 0.253 0.345 0.39 0.512 0.432 0.517 0.883 1.016 1.359 1.493 0.185 0.188 0.393 0.358 0.585 0.54 0.313 0.294 0.626 0.588 0.956 0.86 0.224 0.185 0.46 0.358 0.693 0.537 0.333 0.256 0.669 0.511 1.017 0.748a25.703 25.703 0 0 0 1.886 1.15c0.122 0.068 0.23 0.145 0.352 0.209l167.358 87.579 2.394 256.996c0.003 0.233 0.032 0.457 0.042 0.69 0.016 0.419 0.035 0.838 0.073 1.257 0.036 0.377 0.093 0.748 0.147 1.118 0.048 0.33 0.096 0.659 0.16 0.988 0.083 0.425 0.186 0.844 0.291 1.26 0.07 0.272 0.138 0.543 0.218 0.815 0.127 0.432 0.271 0.857 0.425 1.279 0.092 0.256 0.185 0.511 0.287 0.767 0.164 0.4 0.34 0.793 0.525 1.183 0.13 0.275 0.259 0.547 0.4 0.818a23.871 23.871 0 0 0 2.423 3.69c0.188 0.233 0.386 0.46 0.588 0.684 0.278 0.316 0.56 0.63 0.857 0.933 0.217 0.22 0.44 0.429 0.665 0.636 0.297 0.279 0.591 0.553 0.904 0.816 0.282 0.236 0.576 0.454 0.867 0.677 0.275 0.208 0.543 0.42 0.83 0.617 0.39 0.269 0.797 0.515 1.206 0.758 0.176 0.106 0.339 0.224 0.518 0.326l0.336 0.189 0.019 0.01 279.76 156.993a22.353 22.353 0 0 0 21.487 0.23l280.09-149.436a22.492 22.492 0 0 0 1.967-1.177c0.223-0.15 0.425-0.32 0.642-0.476 0.365-0.265 0.732-0.52 1.08-0.805 0.384-0.314 0.74-0.653 1.1-0.988 0.164-0.154 0.333-0.294 0.493-0.451 0.355-0.355 0.684-0.726 1.01-1.1 0.147-0.17 0.304-0.326 0.448-0.499 0.284-0.345 0.543-0.706 0.805-1.064 0.17-0.23 0.345-0.45 0.505-0.687 0.208-0.307 0.39-0.63 0.582-0.947 0.189-0.31 0.384-0.617 0.556-0.936 0.141-0.26 0.26-0.528 0.39-0.793 0.192-0.393 0.387-0.78 0.557-1.186 0.092-0.224 0.17-0.457 0.255-0.684 0.17-0.448 0.343-0.892 0.483-1.353 0.074-0.243 0.128-0.489 0.195-0.732 0.122-0.447 0.246-0.889 0.342-1.346 0.077-0.364 0.122-0.735 0.18-1.103 0.05-0.338 0.118-0.674 0.156-1.02 0.083-0.77 0.128-1.544 0.131-2.32l2.404-251.782 191.875-100.405c0.137-0.074 0.262-0.16 0.4-0.234a23.325 23.325 0 0 0 1.918-1.182c0.329-0.227 0.652-0.467 0.968-0.71 0.256-0.198 0.512-0.393 0.755-0.598 0.284-0.24 0.553-0.49 0.825-0.742 0.243-0.223 0.489-0.444 0.719-0.68 0.281-0.285 0.543-0.592 0.809-0.893 0.188-0.214 0.39-0.418 0.569-0.639a22.282 22.282 0 0 0 2.334-3.481c0.044-0.08 0.08-0.167 0.121-0.246 0.281-0.538 0.55-1.084 0.79-1.647 0.064-0.147 0.115-0.3 0.172-0.45 0.199-0.493 0.387-0.989 0.55-1.5 0.074-0.227 0.128-0.457 0.195-0.687a21.867 21.867 0 0 0 0.342-1.311c0.067-0.304 0.115-0.614 0.17-0.92 0.05-0.285 0.118-0.56 0.156-0.851 0.013-0.093 0.013-0.182 0.026-0.275 0.054-0.425 0.083-0.85 0.112-1.279 0.025-0.336 0.054-0.649 0.064-0.962zM675.09 520.724l-101.307-13.983 240.385-125.795 101.31 13.983L675.09 520.724z m-323.028-0.121L109.68 393.763l79.255-12.692 242.383 126.84-79.255 12.692z m43.296-374.242l67.196 67.192-264.864 117.56-67.192-67.193 264.86-117.56z m212.14-0.004L872.364 263.92l-67.192 67.193-264.863-117.56 67.189-67.196zM501.434 494.091L244.157 359.46l257.277-114.194L758.708 359.46 501.434 494.09z m-163.54 69.61c0.086 0.044 0.175 0.073 0.262 0.118 0.725 0.367 1.464 0.71 2.231 0.997l0.038 0.016a21.883 21.883 0 0 0 2.967 0.863c0.598 0.134 1.205 0.243 1.816 0.326 0.217 0.029 0.435 0.064 0.652 0.09 0.787 0.083 1.576 0.14 2.379 0.14h0.01a22.378 22.378 0 0 0 3.305-0.265c0.083-0.013 0.166-0.006 0.25-0.02l127.249-20.376v74.312c0 1.902 0.262 3.74 0.71 5.505a22.34 22.34 0 0 0-0.71 5.505v234.576L243.572 733.344l-2.05-220.078 96.371 50.434z m421.402 177.07L523.81 866.404v-235.49c0-1.902-0.262-3.74-0.71-5.505 0.448-1.765 0.71-3.603 0.71-5.505v-74.878l152.25 21.017 0.041 0.003c1.004 0.137 2.017 0.208 3.037 0.208h0.01c0.809 0 1.605-0.058 2.394-0.141 0.218-0.022 0.435-0.06 0.653-0.09a21.2 21.2 0 0 0 1.809-0.326c0.214-0.048 0.432-0.096 0.646-0.15 1.614-0.412 3.165-1 4.629-1.749 0.073-0.038 0.147-0.06 0.22-0.099l71.85-37.598-2.052 214.668z"
     id="path832" />
  <ellipse
     cx="501.28979"
     cy="238.67551"
     style="fill:#3776ab;stroke-width:0.347521"
     id="circle972"
     rx="174.53807"
     ry="181.38979" />
  <path
     d="m 500.64993,148.49643 c -44.28221,0 -41.52097,19.9458 -41.52097,19.9458 l 0.0341,20.68977 H 501.434 v 6.19985 h -59.04295 c 0,0 -28.32835,-3.3302 -28.32835,43.1155 0,46.44571 24.74896,44.78061 24.74896,44.78061 h 14.76073 v -21.54004 c 0,0 -0.78406,-25.72051 24.33988,-25.72051 h 41.93005 c 0,0 23.55581,0.38971 23.55581,-23.6657 v -39.74987 c 0,0 3.54531,-24.05541 -42.74819,-24.05541 z m -23.2831,13.92309 c 4.193,0 7.60195,3.54277 7.60195,7.90038 0,4.3576 -3.40895,7.90037 -7.60195,7.90037 -4.19301,0 -7.60196,-3.54277 -7.60196,-7.90037 0,-4.35761 3.37486,-7.90038 7.60196,-7.90038 z m 24.54441,166.4393 c 44.28222,0 41.52097,-19.94578 41.52097,-19.94578 l -0.0341,-20.68978 h -42.27094 v -6.19985 h 59.04296 c 0,0 28.32835,3.33021 28.32835,-43.1155 0,-46.4457 -24.74896,-44.7806 -24.74896,-44.7806 h -14.76073 v 21.54003 c 0,0 0.78405,25.72051 -24.33988,25.72051 h -41.93005 c 0,0 -23.55582,-0.38971 -23.55582,23.6657 v 39.74987 c 0,0 -3.51122,24.0554 42.74819,24.0554 z m 23.3172,-13.92308 c -4.19301,0 -7.60196,-3.54277 -7.60196,-7.90037 0,-4.35761 3.40895,-7.90038 7.60196,-7.90038 4.193,0 7.60195,3.54277 7.60195,7.90038 0,4.39303 -3.40895,7.90037 -7.60195,7.90037 z"
     style="fill:#ffffff;stroke-width:0.347521"
     id="path974" />
  <g
     id="g1199"
     transform="matrix(0.2975464,-0.10160327,0.09555838,0.35536456,567.76288,603.51722)"
     style="fill:#000000">
    <g
       id="g1197"
       style="fill:#000000"
       transform="matrix(0.99055293,-0.07378885,0.10107666,1.0020077,-85.833641,46.544188)">
      <rect
         width="109.2"
         x="82.300003"
         y="96.900002"
         height="20.799999"
         id="rect1187"
         style="fill:#ffff00" />
      <rect
         width="109.2"
         x="82.300003"
         y="158.2"
         height="20.799999"
         id="rect1189"
         style="fill:#000080" />
      <rect
         width="256.89999"
         x="82.300003"
         y="218.60001"
         height="20.799999"
         id="rect1191"
         style="fill:#000080" />
      <rect
         width="256.89999"
         x="82.300003"
         y="278.89999"
         height="20.799999"
         id="rect1193"
         style="fill:#000080" />
      <rect
         width="250.72174"
         x="87.041931"
         y="340.65701"
         height="19.633236"
         id="rect1193-7"
         style="fill:#000080;stroke-width:0.959794"
         transform="matrix(0.99989675,0.01436945,0.01771265,0.99984312,0,0)" />
      <path
         d="m 487.29895,251.07422 c -16.3,-16.3 -42.7,-16.3 -59,0 l -22.1,22.1 v -112.5 c 0,-3.1 -1,-5.2 -3.1,-7.3 l -137.3,-137.300002 c -2.1,-2.1 -4.2,-3.1 -7.3,-3.1 l -237.199995,0 c -6.2,0 -10.4,4.2 -10.4,10.4 l 0,468.100002 c 0,6.2 4.2,10.4 10.4,10.4 H 395.79895 c 6.2,0 10.4,-4.2 10.4,-11.4 v -99.3 l 81.1,-81.1 c 16.3,-16.3 16.3,-42.7 0,-59 z m -218.4,-202.800002 101.9,101.900002 -101.9,0 z m 116.5,432.800002 H 31.698955 l 0,-447.300002 216.399995,0 V 160.67422 c 0,6.2 4.2,10.4 10.4,10.4 l 126.9,0 v 122.9 l -99.2,99.2 -8.8,67.8 67.8,-8.8 40.3,-40.3 v 69.2 z m 87.2,-186.1 -136.8,136.8 -35,5.7 5.7,-35 136.8,-136.8 c 8.1,-8.1 21.2,-8.1 29.3,0 8.1,8.1 8.1,21.2 0,29.3 z"
         id="path1195"
         style="fill:#000000" />
    </g>
  </g>
</svg>
